<svg width="30" height="30" viewBox="0 0 30 30" fill="none" xmlns="http://www.w3.org/2000/svg">
<path d="M5 10C5.69036 10 6.25 9.44036 6.25 8.75C6.25 8.05964 5.69036 7.5 5 7.5C4.30964 7.5 3.75 8.05964 3.75 8.75C3.75 9.44036 4.30964 10 5 10Z" fill="#8495A1"/>
<path d="M5 16.25C5.69036 16.25 6.25 15.6904 6.25 15C6.25 14.3096 5.69036 13.75 5 13.75C4.30964 13.75 3.75 14.3096 3.75 15C3.75 15.6904 4.30964 16.25 5 16.25Z" fill="#8495A1"/>
<path d="M5 22.5C5.69036 22.5 6.25 21.9404 6.25 21.25C6.25 20.5596 5.69036 20 5 20C4.30964 20 3.75 20.5596 3.75 21.25C3.75 21.9404 4.30964 22.5 5 22.5Z" fill="#8495A1"/>
<path d="M25.075 13.75H9.925C9.27607 13.75 8.75 14.2761 8.75 14.925V15.075C8.75 15.7239 9.27607 16.25 9.925 16.25H25.075C25.7239 16.25 26.25 15.7239 26.25 15.075V14.925C26.25 14.2761 25.7239 13.75 25.075 13.75Z" fill="#8495A1"/>
<path d="M25.075 20H9.925C9.27607 20 8.75 20.5261 8.75 21.175V21.325C8.75 21.9739 9.27607 22.5 9.925 22.5H25.075C25.7239 22.5 26.25 21.9739 26.25 21.325V21.175C26.25 20.5261 25.7239 20 25.075 20Z" fill="#8495A1"/>
<path d="M25.1492 7.05859H9.99922C9.35028 7.05859 8.82422 7.58466 8.82422 8.23359V8.38359C8.82422 9.03253 9.35028 9.55859 9.99922 9.55859H25.1492C25.7982 9.55859 26.3242 9.03253 26.3242 8.38359V8.23359C26.3242 7.58466 25.7982 7.05859 25.1492 7.05859Z" fill="#8495A1"/>
</svg>
