<svg width="30" height="30" viewBox="0 0 30 30" fill="none" xmlns="http://www.w3.org/2000/svg">
<path fill-rule="evenodd" clip-rule="evenodd" d="M15.8835 5.36647C15.6491 5.13213 15.3312 5.00049 14.9997 5.00049C14.6683 5.00049 14.3504 5.13213 14.116 5.36647L9.11598 10.3665C8.94122 10.5413 8.82221 10.764 8.774 11.0064C8.72579 11.2489 8.75055 11.5002 8.84514 11.7285C8.93972 11.9569 9.0999 12.1521 9.30541 12.2895C9.51092 12.4268 9.75255 12.5002 9.99973 12.5002H19.9997C20.2469 12.5002 20.4885 12.4268 20.6941 12.2895C20.8996 12.1521 21.0597 11.9569 21.1543 11.7285C21.2489 11.5002 21.2737 11.2489 21.2255 11.0064C21.1773 10.764 21.0582 10.5413 20.8835 10.3665L15.8835 5.36647ZM9.99973 17.5002C9.75255 17.5003 9.51092 17.5736 9.30541 17.711C9.0999 17.8483 8.93972 18.0435 8.84514 18.2719C8.75055 18.5003 8.72579 18.7516 8.774 18.994C8.82221 19.2365 8.94122 19.4592 9.11598 19.634L14.116 24.634C14.3504 24.8683 14.6683 25 14.9997 25C15.3312 25 15.6491 24.8683 15.8835 24.634L20.8835 19.634C21.0582 19.4592 21.1773 19.2365 21.2255 18.994C21.2737 18.7516 21.2489 18.5003 21.1543 18.2719C21.0597 18.0435 20.8996 17.8483 20.6941 17.711C20.4885 17.5736 20.2469 17.5003 19.9997 17.5002H9.99973Z" fill="#8495A1"/>
</svg>
